<?xml version="1.0" encoding="UTF-8" standalone="no"?>
<!-- Created with Inkscape (http://www.inkscape.org/) -->

<svg
   version="1.1"
   id="svg1"
   width="222.30508"
   height="108.05085"
   viewBox="0 0 222.30508 108.05085"
   sodipodi:docname="vna-glasses.svg"
   inkscape:version="1.4.3 (0d15f75042, 2025-12-25)"
   xmlns:inkscape="http://www.inkscape.org/namespaces/inkscape"
   xmlns:sodipodi="http://sodipodi.sourceforge.net/DTD/sodipodi-0.dtd"
   xmlns="http://www.w3.org/2000/svg"
   xmlns:svg="http://www.w3.org/2000/svg">
  <defs
     id="defs1">
    <linearGradient
       id="swatch29"
       inkscape:swatch="solid">
      <stop
         style="stop-color:#000000;stop-opacity:1;"
         offset="0"
         id="stop29" />
    </linearGradient>
    <linearGradient
       id="swatch4"
       inkscape:swatch="solid">
      <stop
         style="stop-color:#ffffff;stop-opacity:0;"
         offset="0"
         id="stop4" />
    </linearGradient>
    <linearGradient
       id="linearGradient1"
       inkscape:swatch="gradient">
      <stop
         style="stop-color:#000000;stop-opacity:1;"
         offset="0"
         id="stop1" />
      <stop
         style="stop-color:#000000;stop-opacity:0;"
         offset="1"
         id="stop2" />
    </linearGradient>
  </defs>
  <sodipodi:namedview
     id="namedview1"
     pagecolor="#ffffff"
     bordercolor="#cccccc"
     borderopacity="1"
     inkscape:showpageshadow="0"
     inkscape:pageopacity="1"
     inkscape:pagecheckerboard="0"
     inkscape:deskcolor="#d1d1d1"
     inkscape:zoom="1.888"
     inkscape:cx="168.16737"
     inkscape:cy="113.87712"
     inkscape:window-width="1920"
     inkscape:window-height="1007"
     inkscape:window-x="0"
     inkscape:window-y="0"
     inkscape:window-maximized="1"
     inkscape:current-layer="g1" />
  <g
     inkscape:groupmode="layer"
     inkscape:label="Image"
     id="g1"
     style="fill:#b600ff;fill-opacity:1">
    <path
       id="path3"
       style="display:inline;fill:#b600ff;stroke:none;stroke-width:0;stroke-linejoin:bevel;stroke-dasharray:none;stroke-opacity:0.01;fill-opacity:1"
       d="M 110.5668,5.9584543 C 94.604865,6.3580663 85.937895,21.120564 85.937895,21.120564 c 0,0 -3.46976,-0.250629 -3.50976,0.06641 -0.04002,0.317035 13.04907,13.752921 14.89648,25.820312 2.994775,19.558078 -5.10156,31.171878 -5.10156,31.171878 l 3.24023,0.03906 c 0,0 6.819775,-9.22466 14.837885,-9.49414 8.93587,-0.30033 16,9.31445 16,9.31445 l 2.27344,-0.04687 c -0.0628,0.12568 -7.42025,-17.95847 -3.83984,-31.250002 3.56951,-13.251077 12.54498,-23.319272 13.87304,-25.087891 0.1012,-0.134706 0.15707,-0.219709 0.16407,-0.255859 10e-4,-0.0063 0.002,-0.01047 0,-0.01367 -0.0791,-0.154665 -2.91407,-0.13086 -2.91407,-0.13086 0,0 -9.32907,-15.6945327 -25.29101,-15.2949217 z m 0.16601,8.0976567 a 7.5382581,7.3509946 0 0 1 7.53711,7.351562 7.5382581,7.3509946 0 0 1 -7.53711,7.349609 7.5382581,7.3509946 0 0 1 -7.53906,-7.349609 7.5382581,7.3509946 0 0 1 7.53906,-7.351562 z" />
    <path
       id="path2"
       style="display:inline;stroke:none;stroke-width:0;stroke-linejoin:bevel;stroke-opacity:0.01;stroke-dasharray:none;fill:#b600ff;fill-opacity:1"
       d="M 51.101965,11.839314 A 44.777302,45.042122 0 0 0 6.3246157,56.88033 44.777302,45.042122 0 0 0 51.101965,101.9233 44.777302,45.042122 0 0 0 95.879305,56.88033 44.777302,45.042122 0 0 0 51.101965,11.839314 Z m 0.0098,9.833984 A 35.264572,35.39698 0 0 1 86.377355,57.07174 35.264572,35.39698 0 0 1 51.111725,92.46822 35.264572,35.39698 0 0 1 15.848054,57.07174 35.264572,35.39698 0 0 1 51.111725,21.673298 Z" />
    <path
       style="fill:#b600ff;stroke:none;stroke-width:0;stroke-linejoin:bevel;stroke-dasharray:none;stroke-opacity:0.01;fill-opacity:1"
       d="m 49.965005,85.2333 c 10.39118,-0.72644 18.48538,-3.17924 24.27804,-11.40034 3.47209,-4.92767 4.53331,-10.88632 4.93506,-17.62549 0.0398,-0.66752 3.15347,-0.69822 3.18347,-0.28089 0.57285,7.96854 -2.33957,15.68032 -4.88035,19.82223 -6.62697,10.80311 -20.08393,12.9586 -27.32896,12.85524 -0.63989,-0.009 -0.78206,-3.32917 -0.18726,-3.37075 z"
       id="path37-6"
       sodipodi:nodetypes="sssssss" />
    <path
       id="path1"
       style="display:inline;stroke:none;stroke-width:0;stroke-linejoin:bevel;stroke-opacity:0.01;stroke-dasharray:none;fill:#b600ff;fill-opacity:1"
       d="M 170.80508,12.368611 A 44.777302,45.042122 0 0 0 126.02774,57.40963 44.777302,45.042122 0 0 0 170.80508,102.4526 44.777302,45.042122 0 0 0 215.58242,57.40963 44.777302,45.042122 0 0 0 170.80508,12.368611 Z m 0.01,9.835937 A 35.264572,35.39698 0 0 1 206.08047,57.60103 35.264572,35.39698 0 0 1 170.81485,92.99752 35.264572,35.39698 0 0 1 135.55117,57.60103 35.264572,35.39698 0 0 1 170.81485,22.204548 Z" />
    <path
       style="fill:#b600ff;stroke:none;stroke-width:0;stroke-linejoin:bevel;stroke-dasharray:none;stroke-opacity:0.01;fill-opacity:1"
       d="m 169.66839,85.76296 c 10.39118,-0.72644 18.48538,-3.17924 24.27804,-11.40034 3.47209,-4.92767 4.53331,-10.88632 4.93506,-17.62549 0.0398,-0.66752 3.15347,-0.69822 3.18347,-0.28089 0.57285,7.96854 -2.33957,15.68032 -4.88035,19.82223 -6.62697,10.80311 -20.08393,12.9586 -27.32896,12.85524 -0.63989,-0.009 -0.78206,-3.32917 -0.18726,-3.37075 z"
       id="path38"
       sodipodi:nodetypes="sssssss" />
  </g>
</svg>
